<?xml version="1.0" standalone="no"?>
<!DOCTYPE svg PUBLIC "-//W3C//DTD SVG 20010904//EN"
 "http://www.w3.org/TR/2001/REC-SVG-20010904/DTD/svg10.dtd">
<svg version="1.0" xmlns="http://www.w3.org/2000/svg"
 width="1985.000000pt" height="1116.000000pt" viewBox="0 0 1985.000000 1116.000000"
 preserveAspectRatio="xMidYMid meet">
<metadata>
Created by potrace 1.16, written by Peter Selinger 2001-2019
</metadata>
<g transform="translate(0.000000,1116.000000) scale(0.100000,-0.100000)"
fill="#000000" stroke="none">
<path d="M0 5580 l0 -5580 9925 0 9925 0 0 5580 0 5580 -9925 0 -9925 0 0
-5580z m9506 4825 c191 -31 312 -84 410 -180 108 -106 149 -216 148 -400 -2
-305 -107 -458 -354 -518 -66 -16 -137 -24 -450 -52 -347 -32 -530 -81 -800
-215 -365 -180 -669 -415 -924 -711 -598 -695 -817 -1612 -584 -2444 137 -492
444 -959 841 -1284 188 -153 475 -315 692 -391 263 -92 462 -124 765 -125 235
0 313 8 524 52 834 173 1688 777 2481 1753 37 47 75 92 82 100 20 21 -18 -59
-534 -1120 -253 -520 -564 -1159 -691 -1420 -593 -1223 -726 -1480 -762 -1480
-15 0 -12 73 10 215 55 362 63 441 64 630 1 152 -3 206 -18 270 -34 147 -86
230 -177 279 -76 42 -157 45 -334 13 -317 -58 -612 -78 -935 -65 -1015 41
-1944 527 -2550 1333 -391 519 -626 1116 -717 1820 -25 194 -25 672 0 860 75
562 247 1025 552 1485 339 511 783 904 1310 1160 446 217 991 383 1425 434
158 19 413 19 526 1z m1804 1 c599 -109 898 -784 575 -1301 -118 -190 -310
-325 -542 -382 -99 -24 -285 -21 -388 6 -255 67 -458 235 -571 474 -99 211
-105 467 -14 688 151 366 552 585 940 515z m-1764 -1417 c143 -25 264 -76 328
-137 136 -130 158 -479 39 -604 -17 -18 -71 -45 -147 -74 -397 -154 -516 -203
-651 -269 -544 -267 -842 -621 -932 -1108 -26 -140 -23 -441 6 -612 49 -291
151 -500 341 -699 243 -255 531 -410 875 -472 123 -22 435 -30 577 -14 747 81
1573 472 2202 1043 89 80 89 77 2 -38 -269 -358 -633 -720 -991 -985 -848
-627 -1776 -853 -2520 -613 -447 144 -803 421 -1130 878 -304 425 -441 911
-422 1495 11 323 70 563 208 843 332 674 1083 1240 1809 1362 94 16 327 18
406 4z m3564 -7354 c40 -88 137 -299 215 -470 337 -731 375 -815 375 -820 0
-3 -53 -5 -119 -5 l-118 0 -78 180 -78 180 -279 0 -279 0 -30 -67 c-17 -38
-53 -119 -81 -180 l-50 -113 -484 0 -484 0 0 710 0 711 113 -3 112 -3 3 -602
2 -603 250 0 250 0 0 -92 c0 -59 3 -89 10 -82 5 5 69 140 142 299 74 160 221
480 328 712 107 233 197 419 201 415 3 -4 39 -79 79 -167z m1556 -630 c77 -77
158 -160 177 -185 l37 -45 0 493 0 492 105 0 105 0 0 -737 0 -737 -52 49 c-29
28 -127 122 -218 211 -91 89 -281 273 -422 410 -141 137 -276 273 -300 302
l-43 54 -3 -486 -2 -486 -105 0 -105 0 0 736 0 736 342 -333 c188 -184 406
-397 484 -474z m-9807 770 c84 -17 176 -54 247 -97 l51 -31 -5 -111 c-2 -61
-6 -112 -7 -114 -2 -2 -29 14 -62 36 -132 90 -215 116 -368 116 -167 1 -276
-44 -379 -154 -95 -104 -136 -218 -136 -385 0 -145 45 -266 135 -363 98 -106
208 -152 361 -152 140 0 255 38 382 126 l63 44 -3 -132 -3 -131 -60 -33 c-237
-132 -569 -119 -793 29 -134 90 -227 213 -284 378 -30 89 -32 102 -32 239 -1
151 8 200 56 315 67 162 233 324 393 384 132 50 311 64 444 36z m1394 1 c486
-93 749 -615 533 -1060 -90 -185 -277 -336 -486 -392 -88 -24 -281 -24 -369 0
-272 74 -473 273 -542 539 -23 89 -25 252 -4 352 46 221 236 439 454 522 136
52 278 65 414 39z m4797 0 c79 -17 177 -56 247 -98 l51 -31 -5 -111 c-3 -61
-7 -112 -8 -114 -2 -2 -29 14 -62 36 -133 90 -215 116 -368 116 -168 0 -276
-44 -379 -154 -95 -104 -136 -218 -136 -385 0 -190 82 -349 232 -446 86 -55
165 -73 295 -67 131 7 232 42 342 119 l71 50 0 -130 0 -129 -49 -30 c-116 -72
-283 -109 -438 -98 -426 31 -713 358 -690 786 12 209 91 381 237 512 100 91
233 156 360 178 75 13 231 11 300 -4z m-3375 -26 c152 -12 202 -24 295 -68
148 -69 269 -223 317 -402 26 -95 25 -368 -1 -465 -56 -209 -207 -375 -393
-434 -101 -31 -218 -41 -510 -41 l-263 0 0 703 c0 387 3 707 7 710 10 10 412
8 548 -3z m1685 -90 l0 -100 -280 0 -280 0 0 -175 0 -175 280 0 281 0 -3 -102
-3 -103 -277 -3 -278 -2 0 -225 0 -225 280 0 280 0 0 -105 0 -105 -390 0 -390
0 0 710 0 710 390 0 390 0 0 -100z m6500 -262 c0 -7 -77 -193 -172 -415 l-172
-403 -42 0 -43 0 35 83 c20 45 97 226 171 402 75 176 141 326 146 333 12 16
77 16 77 0z m-12150 -155 l0 -48 -208 -84 c-114 -46 -217 -89 -230 -96 -21
-10 -1 -20 207 -105 l231 -94 0 -43 c0 -24 -3 -43 -7 -43 -5 0 -137 53 -295
117 l-288 118 0 40 0 40 293 122 c160 67 293 122 295 122 1 1 2 -20 2 -46z
m12725 -173 l140 -57 0 -42 0 -43 -279 -114 c-153 -63 -282 -114 -287 -114 -5
0 -9 19 -9 43 l0 42 225 90 c124 50 225 92 225 95 0 3 -102 46 -225 95 l-225
90 0 47 0 47 148 -61 c81 -34 210 -87 287 -118z"/>
<path d="M13011 1314 c-6 -25 -46 -123 -87 -217 -42 -95 -78 -178 -81 -184 -4
-10 37 -13 186 -13 105 0 191 1 191 3 0 2 -32 75 -71 163 -39 87 -81 189 -92
226 -12 37 -25 68 -28 68 -4 0 -12 -21 -18 -46z"/>
<path d="M6035 1570 c-143 -26 -262 -106 -346 -234 -54 -82 -80 -171 -82 -276
-2 -159 47 -283 153 -391 100 -101 211 -149 350 -149 139 0 245 42 345 134
108 101 165 235 165 390 0 152 -42 264 -137 366 -117 126 -289 188 -448 160z"/>
<path d="M7350 1050 l0 -500 158 0 c262 0 349 25 440 125 90 98 126 206 126
380 0 173 -51 308 -149 394 -87 76 -195 101 -436 101 l-139 0 0 -500z"/>
</g>
</svg>
