<?xml version="1.0" standalone="no"?>
<!DOCTYPE svg PUBLIC "-//W3C//DTD SVG 20010904//EN"
 "http://www.w3.org/TR/2001/REC-SVG-20010904/DTD/svg10.dtd">
<svg version="1.0" xmlns="http://www.w3.org/2000/svg"
 width="640.000000pt" height="426.000000pt" viewBox="0 0 640.000000 426.000000"
 preserveAspectRatio="xMidYMid meet">
<metadata>
Created by potrace 1.16, written by Peter Selinger 2001-2019
</metadata>
<g transform="translate(0.000000,426.000000) scale(0.100000,-0.100000)"
fill="#000000" stroke="none">
<path d="M1730 3924 c-211 -25 -348 -56 -476 -109 -163 -68 -280 -162 -328
-265 l-21 -45 0 -1375 0 -1375 28 -56 c140 -286 778 -442 1340 -328 297 60
526 201 581 356 l14 41 -66 43 c-83 53 -232 201 -296 293 -53 77 -104 174
-153 291 -20 49 -38 79 -45 76 -7 -2 -62 -12 -123 -23 -132 -24 -425 -29 -550
-9 -97 15 -258 54 -305 73 -33 14 -34 15 -12 22 12 4 22 12 22 17 0 5 -10 14
-22 19 -39 15 -13 11 84 -14 51 -14 127 -30 168 -38 102 -18 504 -17 633 1 92
13 97 15 91 35 -6 19 -5 20 11 5 15 -15 22 -15 75 -2 l57 15 -8 36 c-5 21 -16
88 -24 151 -8 63 -17 116 -19 118 -2 2 -28 -3 -57 -11 -282 -81 -680 -70 -959
25 -47 16 -72 26 -56 23 26 -5 28 -3 17 10 -11 13 -11 16 0 16 11 0 11 2 -1
10 -22 14 -13 13 102 -15 160 -38 258 -48 458 -48 180 1 322 15 445 46 49 12
50 13 53 52 3 56 32 295 39 323 3 13 1 22 -6 22 -6 0 -10 -3 -10 -7 7 -44 -1
-50 -83 -71 -164 -40 -229 -47 -443 -47 -227 1 -324 13 -485 61 l-85 26 25 21
25 20 -30 -6 c-16 -3 -24 -4 -17 -1 6 3 9 10 6 16 -4 6 1 8 12 5 60 -18 151
-38 239 -53 125 -22 471 -25 590 -6 107 18 258 52 268 62 5 4 22 48 38 96 64
192 170 374 314 537 l87 99 -4 216 c-3 208 -4 219 -28 265 -106 208 -471 353
-910 362 -91 2 -181 1 -200 -1z m158 -241 c492 -2 621 0 616 10 -4 6 3 3 16
-8 20 -17 23 -18 17 -2 -4 9 -4 17 -1 17 14 0 84 -53 116 -88 104 -116 88
-257 -43 -361 l-39 -32 -660 -2 c-363 -1 -660 1 -660 6 0 4 -5 7 -11 7 -6 0
-8 -7 -5 -15 8 -23 -73 36 -116 83 -80 88 -87 185 -20 281 43 63 127 126 151
114 9 -4 296 -9 639 -10z m-473 -968 c157 -40 249 -50 470 -50 241 0 385 19
590 79 11 4 7 0 -10 -8 -16 -8 -25 -15 -19 -16 5 0 19 -7 30 -16 18 -14 18
-14 -6 -3 -22 11 -23 10 -13 -3 11 -13 1 -19 -75 -42 -167 -51 -248 -61 -497
-61 -179 0 -250 4 -320 18 -99 20 -290 76 -282 83 2 2 17 0 32 -6 15 -6 30 -9
32 -6 3 2 -6 8 -19 12 -22 7 -22 7 -3 14 19 7 18 9 -7 19 -16 6 -28 13 -28 17
0 3 8 3 18 -1 9 -4 58 -17 107 -30z m-20 -1545 c132 -36 250 -52 435 -57 201
-6 363 10 514 48 87 22 117 20 95 -8 -8 -9 -9 -14 -4 -11 6 4 17 3 24 -1 15
-10 -92 -44 -227 -74 -84 -18 -130 -21 -337 -22 -259 0 -326 8 -509 62 -76 23
-85 28 -65 36 23 9 23 9 4 17 -13 6 -15 9 -5 10 10 0 6 6 -10 16 -18 11 -19
13 -5 9 11 -3 52 -15 90 -25z m1081 -371 c-15 -9 -16 -13 -5 -20 11 -7 9 -9
-6 -10 -16 -1 -15 -2 5 -8 21 -6 12 -11 -55 -33 -179 -59 -366 -83 -589 -75
-184 6 -299 24 -441 69 -95 30 -98 32 -65 39 19 3 28 7 19 8 -9 0 -16 8 -16
16 0 9 7 13 16 11 333 -98 749 -98 1086 -2 61 17 76 19 51 5z"/>
<path d="M1225 3680 c-3 -6 1 -7 9 -4 18 7 21 14 7 14 -6 0 -13 -4 -16 -10z"/>
<path d="M4387 3429 c7 -7 15 -10 18 -7 3 3 -2 9 -12 12 -14 6 -15 5 -6 -5z"/>
<path d="M3889 3411 c0 -11 -2 -12 -6 -3 -2 6 -9 12 -14 12 -6 0 -7 -4 -4 -10
3 -5 2 -10 -4 -10 -5 0 -11 5 -13 12 -3 7 -11 9 -24 3 -17 -7 -17 -8 -1 -12 9
-3 17 -9 17 -14 0 -13 17 -11 53 5 18 7 48 18 67 24 34 10 34 11 -17 10 -41
-1 -53 -5 -54 -17z"/>
<path d="M4040 3420 c-24 -6 -9 -7 47 -4 47 3 84 1 87 -4 6 -11 46 -4 46 7 0
9 -140 10 -180 1z"/>
<path d="M4359 3405 c19 -8 36 -13 39 -10 9 8 -3 15 -39 20 l-34 6 34 -16z"/>
<path d="M3750 3402 c0 -4 9 -8 20 -9 11 -1 20 2 20 5 0 4 -9 8 -20 9 -11 1
-20 -2 -20 -5z"/>
<path d="M3955 3401 c-41 -9 -33 -26 10 -22 34 2 42 -6 36 -41 0 -5 4 -8 10
-8 7 0 9 9 5 23 -4 12 -8 29 -10 36 -3 18 -13 20 -51 12z"/>
<path d="M4195 3390 c-3 -5 0 -7 8 -5 15 7 42 -20 51 -52 6 -19 3 -23 -16 -24
-13 -1 -28 -1 -35 0 -6 1 -14 -7 -18 -18 -8 -25 -34 -35 -41 -16 -10 24 -26
17 -19 -7 6 -22 6 -22 -9 -4 -9 11 -16 15 -16 9 0 -7 4 -15 10 -18 8 -5 -25
-85 -37 -85 -2 0 -1 6 3 13 4 6 4 9 -1 5 -4 -4 -14 -3 -22 3 -20 17 -16 -5 5
-24 20 -18 42 -7 42 23 1 24 34 58 64 66 15 4 30 13 33 20 3 8 15 14 27 14 27
1 66 30 49 37 -7 3 -13 13 -13 23 0 10 -10 26 -22 34 -26 19 -35 20 -43 6z"/>
<path d="M3605 3380 c-4 -6 5 -10 19 -10 14 0 26 5 26 10 0 6 -9 10 -19 10
-11 0 -23 -4 -26 -10z"/>
<path d="M3715 3379 l-20 -8 20 0 c17 -1 17 -3 5 -11 -10 -7 -11 -10 -2 -10
12 0 29 27 21 34 -2 2 -13 0 -24 -5z"/>
<path d="M3806 3375 c4 -8 11 -15 16 -15 6 0 5 6 -2 15 -7 8 -14 15 -16 15 -2
0 -1 -7 2 -15z"/>
<path d="M3760 3376 c0 -2 9 -6 20 -9 11 -3 18 -1 14 4 -5 9 -34 13 -34 5z"/>
<path d="M3530 3357 c-25 -5 -49 -13 -55 -18 -6 -6 3 -7 24 -3 26 6 32 4 26
-6 -8 -12 10 -30 31 -30 6 0 24 11 40 25 16 14 23 25 16 25 -8 0 -21 -9 -30
-21 -10 -12 -24 -18 -33 -14 -22 8 -20 35 3 35 12 0 17 -4 12 -12 -5 -10 -4
-10 6 -1 23 21 6 29 -40 20z"/>
<path d="M4500 3360 c8 -5 20 -10 25 -10 6 0 3 5 -5 10 -8 5 -19 10 -25 10 -5
0 -3 -5 5 -10z"/>
<path d="M3637 3343 c4 -9 10 -10 25 -2 11 6 22 8 25 6 2 -3 -5 -8 -17 -12
-15 -5 -19 -12 -14 -23 3 -10 6 -24 6 -33 -1 -21 41 -14 64 12 9 10 24 19 33
19 12 0 12 3 3 12 -10 10 -15 10 -21 -1 -5 -8 -11 -9 -15 -3 -9 15 23 23 45
12 23 -13 25 -28 4 -36 -9 -4 -14 -14 -13 -23 2 -11 -5 -17 -24 -19 -14 -2
-32 -10 -40 -19 -12 -15 -11 -15 9 -5 29 16 43 15 43 -2 0 -8 14 -21 30 -30
17 -8 30 -11 30 -6 0 9 -18 23 -32 26 -5 1 -10 2 -13 3 -3 0 -1 10 5 21 6 11
16 19 22 17 6 -1 12 3 15 10 3 7 -4 10 -19 6 -21 -4 -22 -3 -5 10 9 8 17 19
17 26 0 8 8 7 28 -3 20 -10 33 -11 43 -5 11 8 11 12 1 16 -7 2 -19 11 -27 20
-8 8 -21 12 -28 10 -9 -4 -9 -6 1 -6 6 -1 12 -5 12 -11 0 -5 -10 -8 -22 -6
-13 3 -25 5 -28 5 -3 1 2 5 10 10 21 14 -52 7 -76 -7 -10 -6 -14 -12 -7 -12
20 0 4 -26 -17 -27 -24 -2 -26 19 -5 37 20 16 11 25 -25 25 -18 0 -26 -4 -23
-12z"/>
<path d="M3284 3330 c-17 -4 -54 -18 -82 -32 l-53 -24 23 -20 c16 -13 19 -14
10 -2 -12 15 -7 20 43 42 39 18 64 24 83 20 15 -4 45 -8 67 -9 22 -2 45 -4 50
-5 6 -1 17 -2 25 -1 12 1 12 3 2 10 -8 5 -36 7 -63 5 -30 -2 -53 1 -61 9 -8 8
-24 11 -44 7z"/>
<path d="M4030 3331 c0 -5 7 -11 15 -15 8 -3 15 -1 15 3 0 5 -7 11 -15 15 -8
3 -15 1 -15 -3z"/>
<path d="M4530 3330 c0 -6 14 -25 30 -42 18 -17 30 -40 30 -55 0 -17 13 -37
40 -61 39 -34 40 -35 20 -49 -11 -8 -20 -19 -20 -25 0 -7 5 -7 14 1 11 9 14 8
12 -6 0 -10 5 -17 12 -15 8 1 11 -2 7 -8 -6 -10 -5 -11 33 -15 25 -3 38 10 22
20 -6 4 -18 1 -26 -6 -13 -11 -14 -9 -8 16 4 16 3 26 -2 22 -5 -3 -9 8 -9 24
-1 16 3 29 7 29 4 0 8 5 8 10 0 7 -6 7 -19 0 -23 -12 -34 0 -25 27 6 16 5 16
-9 -2 -13 -16 -17 -17 -18 -5 -1 8 -1 19 0 24 1 5 -5 6 -12 3 -11 -4 -13 0
-10 14 3 10 10 16 16 12 6 -3 7 -1 3 6 -4 6 -10 10 -14 8 -4 -2 -20 12 -37 31
-24 29 -26 34 -10 29 11 -3 35 -8 53 -12 33 -7 42 -20 20 -28 -10 -3 -10 -7
-1 -19 7 -8 11 -18 8 -21 -3 -4 -2 -5 2 -2 3 3 13 -4 20 -15 12 -18 13 -23 1
-37 -12 -15 -11 -15 9 -3 l22 14 -30 37 c-27 34 -28 38 -10 36 11 0 19 -4 19
-7 0 -3 0 -12 2 -20 1 -11 4 -10 11 5 9 18 9 18 5 -3 -5 -29 30 -54 82 -58 27
-2 32 0 21 7 -9 5 -25 10 -35 12 -30 4 -44 16 -38 32 4 9 -6 20 -30 31 -19 10
-33 21 -31 25 5 8 -53 33 -102 44 -22 4 -33 3 -33 -5z"/>
<path d="M3495 3320 c-4 -6 -11 -8 -16 -5 -5 4 -9 1 -9 -4 0 -6 7 -11 16 -11
8 0 13 -4 9 -10 -3 -5 -12 -7 -19 -4 -7 3 -19 -3 -27 -12 -13 -16 -12 -16 9
-5 22 12 28 6 23 -22 -1 -5 3 -6 8 -3 5 4 12 0 14 -6 3 -8 6 -6 6 5 1 9 -4 17
-10 17 -5 0 -7 5 -4 10 8 14 17 60 11 60 -3 0 -8 -5 -11 -10z"/>
<path d="M4502 3310 c0 -14 2 -19 5 -12 2 6 2 18 0 25 -3 6 -5 1 -5 -13z"/>
<path d="M3633 3313 c4 -6 0 -13 -8 -17 -8 -3 -15 -15 -15 -26 0 -12 5 -18 10
-15 6 4 8 10 5 15 -3 5 0 12 6 16 8 4 9 3 5 -4 -4 -7 -2 -12 3 -12 15 0 14 37
-1 46 -6 4 -8 3 -5 -3z"/>
<path d="M4000 3309 c0 -5 5 -7 10 -4 6 3 10 8 10 11 0 2 -4 4 -10 4 -5 0 -10
-5 -10 -11z"/>
<path d="M4031 3294 c0 -11 3 -14 6 -6 3 7 2 16 -1 19 -3 4 -6 -2 -5 -13z"/>
<path d="M4693 3292 c15 -16 67 -37 67 -27 0 2 -19 13 -42 25 -41 21 -42 21
-25 2z"/>
<path d="M3555 3282 c-36 -7 -35 -17 3 -16 22 1 38 7 40 15 3 12 2 12 -6 0 -5
-7 -11 -9 -13 -4 -2 5 -13 7 -24 5z"/>
<path d="M3869 3276 c9 -11 9 -16 0 -22 -7 -4 -9 -3 -6 3 9 14 -16 24 -32 14
-7 -5 -11 -17 -9 -27 2 -12 -2 -18 -11 -16 -12 3 -12 1 -1 -13 10 -13 15 -13
21 -3 5 7 6 20 3 30 -2 9 0 19 6 23 5 3 10 -1 10 -9 0 -20 11 -20 36 -1 16 13
17 16 4 25 -22 14 -34 12 -21 -4z"/>
<path d="M3997 3283 c-10 -10 4 -75 21 -98 l14 -20 -8 20 c-5 11 -8 39 -8 63
0 41 -5 49 -19 35z"/>
<path d="M4530 3269 c18 -7 21 -12 11 -18 -9 -6 -10 -10 -2 -12 7 -3 1 -15
-15 -29 -19 -18 -25 -20 -21 -8 4 12 2 15 -9 11 -11 -4 -12 -8 -3 -20 9 -10 9
-16 1 -24 -7 -5 -10 -6 -7 -3 5 8 -13 34 -24 34 -4 0 -5 -31 -3 -70 l4 -70
-31 0 c-24 0 -31 -4 -31 -20 0 -10 -9 -24 -20 -30 -11 -6 -20 -19 -20 -30 0
-13 -14 -27 -40 -40 -26 -13 -40 -27 -40 -40 0 -11 -9 -24 -19 -30 -13 -7 -21
-23 -23 -48 -2 -27 -7 -36 -18 -33 -8 2 -21 4 -27 4 -7 0 -13 6 -13 14 0 7 -4
13 -10 13 -5 0 -10 -18 -10 -40 0 -22 -3 -40 -8 -40 -4 0 -18 -18 -32 -40 -14
-22 -28 -40 -32 -40 -5 0 -8 -7 -8 -16 0 -20 -71 -90 -87 -86 -7 2 -13 -2 -13
-8 0 -5 5 -10 10 -10 6 0 10 -4 10 -10 0 -5 -18 -13 -40 -16 -31 -5 -40 -11
-40 -27 0 -22 -43 -67 -66 -67 -7 0 -14 -9 -14 -20 0 -10 -9 -24 -20 -30 -11
-6 -20 -18 -20 -27 0 -22 -42 -83 -57 -83 -22 0 -63 -47 -63 -71 0 -17 -11
-31 -40 -49 -22 -14 -40 -32 -40 -40 0 -8 -18 -26 -40 -40 -42 -26 -48 -36
-27 -43 9 -3 9 -7 0 -18 -6 -8 -13 -25 -15 -39 -4 -20 -6 -17 -13 17 -9 52
-25 47 -25 -9 0 -32 -4 -41 -20 -45 -15 -4 -19 -11 -15 -24 5 -14 0 -22 -18
-28 -22 -9 -24 -14 -18 -43 6 -28 11 -33 34 -30 19 2 27 -2 27 -12 0 -10 -6
-13 -17 -9 -12 5 -8 -5 12 -31 21 -27 30 -34 36 -24 7 10 9 9 9 -3 0 -12 12
-18 46 -22 34 -3 54 -13 80 -38 19 -18 34 -41 34 -51 0 -10 7 -21 15 -24 9 -4
15 -19 15 -40 0 -25 4 -34 17 -34 9 0 14 -3 10 -6 -3 -3 -14 -3 -25 0 -14 5
-18 13 -15 26 3 10 -2 29 -11 42 -9 12 -16 29 -17 38 -1 29 -68 73 -114 76
-46 3 -85 21 -85 41 0 11 -37 43 -51 43 -3 0 -6 -7 -6 -15 0 -8 4 -12 9 -9 13
8 40 -24 32 -37 -4 -8 -3 -9 4 -5 7 4 12 3 12 -1 0 -16 55 -42 70 -33 14 9 54
-5 83 -29 23 -19 49 -80 40 -94 -3 -6 -1 -7 5 -3 8 5 12 -1 12 -17 0 -27 40
-54 61 -42 9 6 11 3 6 -8 -3 -9 0 -18 9 -21 9 -4 12 -2 8 5 -11 18 38 0 63
-23 11 -11 40 -22 63 -25 28 -4 37 -9 28 -14 -7 -5 -8 -9 -3 -9 6 0 16 5 22
11 9 9 19 6 42 -10 17 -13 31 -27 31 -32 0 -5 3 -8 8 -8 16 3 72 -14 72 -22 0
-12 -36 -29 -45 -21 -5 4 -5 2 -2 -4 9 -17 -311 -172 -331 -160 -4 2 -13 -3
-21 -11 -12 -13 -11 -14 10 -8 115 35 324 141 469 238 l78 52 -64 100 c-34 55
-63 104 -64 109 0 4 19 6 43 2 23 -3 202 -26 397 -52 195 -26 357 -49 360 -51
4 -4 -217 -673 -244 -738 l-13 -30 -38 60 c-20 33 -55 88 -77 122 l-40 62 -37
-24 c-156 -98 -451 -219 -686 -280 -49 -13 -80 -24 -68 -24 23 -1 44 -21 22
-21 -7 0 -4 -6 7 -14 18 -14 18 -15 0 -22 -11 -4 -21 -2 -27 7 -5 8 -7 -1 -4
-26 4 -43 26 -93 47 -106 10 -7 10 -9 0 -9 -19 0 -205 157 -191 161 2 1 31 7
64 14 l60 13 -60 -6 c-33 -4 -143 -7 -245 -7 -170 0 -209 4 -315 32 -27 7 32
-33 132 -89 155 -87 340 -149 538 -178 111 -17 351 -14 460 5 522 91 956 427
1166 905 40 90 92 257 86 274 -2 6 -10 -15 -17 -46 -7 -32 -17 -58 -22 -58 -4
0 -8 -9 -8 -21 0 -13 -4 -18 -12 -13 -6 4 -8 3 -4 -4 3 -6 0 -16 -7 -24 -7 -7
-13 -24 -14 -37 -1 -13 -9 -31 -17 -40 -18 -20 -21 -35 -6 -26 6 4 7 -2 1 -17
-4 -13 -13 -23 -19 -23 -17 0 -27 -15 -28 -43 -2 -49 -4 -53 -16 -45 -17 10
-42 14 -33 5 4 -4 12 -7 17 -7 6 0 13 -6 16 -13 2 -7 -2 -11 -10 -10 -8 2 -12
-4 -10 -16 3 -13 -1 -17 -12 -13 -10 4 -13 1 -10 -8 8 -19 -15 -57 -28 -49 -6
4 -8 3 -5 -3 3 -5 -3 -15 -13 -23 -10 -8 -17 -17 -14 -22 3 -4 -2 -8 -11 -8
-9 0 -14 4 -11 8 3 5 -2 9 -10 9 -10 0 -11 -4 -4 -11 13 -13 13 -29 0 -21 -5
3 -7 0 -4 -9 3 -8 -3 -19 -15 -26 -11 -6 -20 -16 -18 -23 1 -7 -4 -11 -10 -9
-7 1 -14 -2 -14 -8 -1 -5 -2 -16 -3 -22 -1 -7 -9 -12 -19 -10 -9 2 -16 -1 -15
-5 2 -4 -1 -10 -7 -13 -5 -2 -19 -15 -31 -27 -12 -12 -24 -20 -28 -16 -4 4 -4
0 -1 -9 7 -17 -3 -27 -36 -33 -12 -3 -24 -7 -28 -11 -3 -4 2 -4 12 -1 11 4 16
3 12 -3 -3 -6 -14 -10 -23 -10 -9 0 -26 -10 -37 -23 -21 -24 -86 -67 -101 -67
-5 0 -2 6 6 13 8 7 20 21 26 32 7 11 19 19 29 17 12 -2 15 2 11 16 -7 20 55
112 75 112 6 0 7 5 4 10 -4 6 0 21 8 33 8 12 18 38 22 57 4 19 16 47 26 62 11
14 19 29 19 33 0 9 60 87 78 101 8 5 13 17 11 25 -2 7 0 23 4 34 15 46 25 155
16 192 -6 29 -4 51 12 95 11 32 19 75 17 95 -3 35 -6 38 -33 38 -25 1 -30 5
-30 25 0 19 -8 26 -33 34 -27 8 -38 5 -63 -13 -17 -13 -51 -24 -82 -28 -28 -3
-64 -12 -79 -20 -16 -7 -28 -9 -28 -4 0 5 -20 29 -45 52 -25 24 -48 55 -52 69
-6 27 -42 79 -76 111 -18 17 -20 23 -10 49 7 19 7 28 1 24 -6 -4 -8 1 -6 12 2
11 8 18 14 17 6 -1 6 42 2 114 -7 101 -5 120 11 157 10 22 22 52 26 65 4 13
20 36 36 50 30 28 66 101 49 101 -19 0 -10 32 18 59 15 16 26 33 24 40 -6 17
-20 13 -27 -9 -3 -11 -10 -20 -15 -20 -4 0 -3 11 3 25 10 21 17 24 42 19 17
-3 32 -7 35 -7 21 -4 49 17 47 35 -1 13 6 23 21 29 15 6 21 5 17 -1 -3 -6 -13
-10 -21 -10 -8 0 -14 -4 -14 -10 0 -6 9 -6 26 0 14 6 35 10 46 10 11 0 27 8
34 18 13 16 14 16 7 -2 -5 -15 -3 -18 10 -13 11 4 17 1 17 -8 0 -8 5 -15 10
-15 6 0 10 -12 10 -26 0 -28 34 -63 63 -64 10 0 30 -13 44 -30 26 -31 67 -42
57 -15 -4 8 -1 15 5 15 6 0 11 7 11 15 0 13 4 13 22 3 13 -7 28 -20 35 -28 10
-13 12 -13 18 1 4 11 14 15 26 12 13 -4 21 2 28 18 5 13 5 25 0 27 -5 2 -11
19 -15 38 -3 19 -10 34 -15 34 -5 0 -8 3 -7 8 0 4 -2 15 -7 25 -6 15 -10 16
-17 5 -7 -9 -9 -8 -5 7 3 18 0 20 -27 17 -26 -3 -34 1 -45 22 -11 21 -17 23
-28 14 -11 -9 -19 -6 -38 14 -13 14 -21 29 -18 32 12 12 23 6 23 -13 0 -10 7
-21 15 -25 21 -8 19 17 -3 44 l-19 23 -21 -23 c-12 -13 -22 -28 -22 -34 0 -5
-11 5 -25 24 -14 19 -25 30 -25 26 0 -5 -16 3 -35 18 -19 14 -40 25 -47 24 -6
-2 -12 2 -13 7 -1 26 -16 34 -40 23 -13 -6 -22 -15 -18 -21 4 -6 -2 -8 -15 -5
-23 6 -63 -27 -41 -34 9 -3 9 -9 0 -27 -7 -12 -11 -34 -10 -49 4 -44 -10 -75
-32 -69 -10 3 -17 1 -13 -4 3 -5 0 -9 -5 -9 -6 0 -11 4 -11 10 0 5 -11 12 -25
16 -14 4 -23 9 -20 12 3 3 -2 14 -11 23 -12 14 -15 30 -11 61 2 24 3 37 0 30
-5 -13 -23 -7 -23 9 0 5 22 9 49 9 28 0 53 5 56 10 13 21 -17 81 -53 105 -40
27 -52 31 -52 15 0 -6 11 -15 25 -20 32 -12 32 -18 1 -16 -13 0 -22 4 -20 8 2
3 -2 8 -8 11 -10 3 -10 9 0 26 12 20 11 21 -7 12 -15 -8 -21 -7 -27 7 -4 9 -6
20 -6 25 1 4 -5 7 -14 7 -8 0 -13 -3 -11 -7 3 -5 -8 -8 -24 -8 -18 0 -31 6
-33 15 -3 8 -8 26 -12 40 -6 22 -5 23 9 11 9 -7 15 -17 12 -21 -3 -4 2 -13 10
-20 23 -19 48 5 34 32 -16 30 6 49 25 23 11 -15 11 -22 3 -27 -8 -5 -7 -8 3
-8 13 0 13 -1 0 -10 -13 -8 -13 -10 2 -10 11 0 15 -6 11 -21 -5 -19 -4 -20 16
-10 12 7 25 10 30 7 5 -3 14 0 20 7 13 17 3 31 -58 77 -42 33 -44 33 -58 14
-8 -10 -12 -27 -9 -36 5 -22 -10 -34 -17 -14 -3 7 3 28 14 45 23 38 24 51 4
51 -8 0 -15 8 -15 18 -1 16 -1 16 -14 -1 -10 -13 -15 -14 -19 -5 -7 19 27 100
38 91 5 -4 2 3 -7 17 -8 14 -26 26 -39 27 l-24 3 25 -11z m3 -76 c-3 -10 -10
-24 -16 -30 -6 -9 -6 -13 2 -13 6 0 11 -5 11 -11 0 -22 33 -39 49 -26 12 10
12 9 0 -10 -8 -13 -17 -23 -22 -23 -4 0 -5 -4 -2 -10 3 -6 -1 -7 -9 -4 -19 7
-21 24 -3 24 8 0 7 4 -3 10 -19 12 -45 -17 -30 -35 6 -7 2 -15 -11 -23 -25
-16 -25 -2 0 47 12 23 16 42 11 51 -5 8 -3 25 6 42 16 31 27 38 17 11z m-35
-88 c-12 -26 -28 -34 -28 -14 0 9 27 37 37 39 2 0 -3 -11 -9 -25z m177 -75 c7
0 15 -7 19 -15 8 -22 -27 -19 -41 4 -7 10 -9 22 -5 26 4 3 8 1 10 -4 2 -6 10
-11 17 -11z m82 -175 c11 -35 11 -35 -17 -33 -16 1 -27 6 -24 10 3 4 11 5 19
1 18 -6 18 -3 5 31 -5 14 -6 26 -1 26 4 0 12 -16 18 -35z m168 -15 c-5 -9 40
-52 47 -45 2 3 5 -1 5 -8 0 -8 -6 -14 -14 -14 -7 0 -13 4 -13 8 0 5 -11 19
-25 33 -29 29 -30 33 -10 33 8 0 12 -3 10 -7z m-225 -4 c0 -3 -4 -8 -10 -11
-5 -3 -10 -1 -10 4 0 6 5 11 10 11 6 0 10 -2 10 -4z m170 -25 c0 -6 -4 -13
-10 -16 -5 -3 -10 1 -10 9 0 9 5 16 10 16 6 0 10 -4 10 -9z m-191 -86 c0 -11
-7 0 -15 25 -17 56 -17 64 1 25 8 -16 14 -39 14 -50z m168 15 c-1 -16 -5 -30
-9 -30 -9 0 -10 8 -2 38 9 31 14 28 11 -8z m168 20 c3 -5 2 -10 -4 -10 -5 0
-13 5 -16 10 -3 6 -2 10 4 10 5 0 13 -4 16 -10z m-744 -53 c-10 -9 -11 -8 -5
6 3 10 9 15 12 12 3 -3 0 -11 -7 -18z m787 -8 c-3 -8 -7 -3 -11 10 -4 17 -3
21 5 13 5 -5 8 -16 6 -23z m-728 6 c8 0 15 -7 15 -15 0 -8 5 -18 10 -22 15
-12 -7 -10 -25 2 -10 6 -11 10 -2 10 6 0 12 4 12 10 0 5 -13 7 -32 3 -28 -6
-30 -5 -17 9 8 9 16 13 19 9 3 -3 12 -6 20 -6z m52 -19 c7 4 8 2 4 -5 -10 -15
-26 -4 -25 17 1 15 2 15 6 -1 2 -9 9 -14 15 -11z m318 -11 c0 -12 -19 -12 -23
0 -4 9 -1 12 9 8 7 -3 14 -7 14 -8z m-401 -4 c10 -7 7 -9 -12 -8 -14 1 -23 5
-20 10 6 9 15 9 32 -2z m441 -31 c0 -5 -7 -7 -15 -4 -8 4 -15 8 -15 10 0 2 7
4 15 4 8 0 15 -4 15 -10z m60 -10 c-13 -9 -13 -11 0 -20 9 -6 10 -10 3 -10
-15 0 -26 17 -18 30 3 6 12 10 18 10 7 0 6 -4 -3 -10z m-35 -10 c3 -5 1 -10
-4 -10 -6 0 -11 5 -11 10 0 6 2 10 4 10 3 0 8 -4 11 -10z m85 -4 c0 -3 -4 -8
-10 -11 -5 -3 -10 -1 -10 4 0 6 5 11 10 11 6 0 10 -2 10 -4z m210 -36 c0 -5
-5 -10 -11 -10 -5 0 -7 5 -4 10 3 6 8 10 11 10 2 0 4 -4 4 -10z m-330 -114 c0
-3 -4 -8 -10 -11 -5 -3 -10 -1 -10 4 0 6 5 11 10 11 6 0 10 -2 10 -4z m-30
-61 c-7 -9 -15 -13 -18 -10 -3 2 1 11 8 20 7 9 15 13 18 10 3 -2 -1 -11 -8
-20z m-43 -27 c-3 -8 -6 -5 -6 6 -1 11 2 17 5 13 3 -3 4 -12 1 -19z m-35 -100
c-7 -7 -12 -8 -12 -2 0 14 12 26 19 19 2 -3 -1 -11 -7 -17z m-25 -140 c-3 -8
-6 -5 -6 6 -1 11 2 17 5 13 3 -3 4 -12 1 -19z m10 -80 c-3 -8 -6 -5 -6 6 -1
11 2 17 5 13 3 -3 4 -12 1 -19z m-1117 -212 c0 -17 -14 -29 -23 -20 -8 8 3 34
14 34 5 0 9 -6 9 -14z m-56 -21 c-4 -8 -8 -15 -10 -15 -2 0 -4 7 -4 15 0 8 4
15 10 15 5 0 7 -7 4 -15z m376 -351 c0 -9 -28 -3 -46 11 -17 13 -16 14 14 4
17 -6 32 -13 32 -15z m1506 -211 c-10 -10 -19 5 -10 18 6 11 8 11 12 0 2 -7 1
-15 -2 -18z"/>
<path d="M3117 3250 c-8 -11 -16 -17 -19 -14 -6 5 -88 -44 -88 -53 0 -3 11 -2
25 1 37 10 30 -9 -20 -51 -25 -20 -45 -43 -45 -50 0 -12 -12 -17 -32 -15 -3 1
-12 -6 -20 -16 -12 -15 -11 -16 5 -3 30 24 18 -2 -18 -39 -141 -142 -226 -245
-264 -320 -23 -45 -41 -92 -41 -105 0 -14 -9 -47 -20 -75 -11 -28 -20 -62 -20
-75 0 -14 -5 -25 -10 -25 -7 0 -8 -13 -5 -34 4 -19 3 -42 -2 -52 -5 -11 -6
-32 -2 -49 5 -22 7 -24 9 -10 1 11 2 23 1 27 -3 23 23 168 36 198 20 44 23 57
28 99 1 18 9 37 16 42 8 5 10 9 5 9 -5 0 -3 6 3 13 6 8 8 17 4 20 -3 4 1 7 11
7 9 0 14 5 11 10 -3 6 3 23 14 39 12 16 21 34 21 41 0 6 5 8 10 5 6 -3 10 -2
10 4 0 6 12 22 27 36 15 14 25 25 21 25 -3 0 17 23 45 52 29 28 56 60 62 71 9
18 26 26 63 29 9 1 9 5 2 12 -14 14 -13 29 3 20 6 -4 9 -4 5 0 -8 10 23 47 34
40 4 -3 5 1 2 9 -3 8 3 20 12 28 15 12 16 11 10 -11 -5 -16 1 -11 17 15 13 22
28 39 33 38 5 -1 11 8 12 20 6 58 8 62 39 62 24 -1 29 3 29 22 0 28 -1 28 -19
3z m-187 -244 c0 -2 -7 -7 -16 -10 -8 -3 -12 -2 -9 4 6 10 25 14 25 6z"/>
<path d="M4290 3261 c2 -32 67 -48 92 -23 10 10 10 15 -2 22 -22 14 -34 12
-21 -4 8 -9 8 -16 2 -20 -5 -4 -12 2 -15 11 -5 17 -56 30 -56 14z"/>
<path d="M3450 3245 c-11 -13 -10 -14 4 -9 9 3 16 10 16 15 0 13 -6 11 -20 -6z"/>
<path d="M3626 3244 c-21 -15 -40 -19 -33 -6 3 4 -12 7 -33 7 -21 0 -36 -3
-34 -6 6 -10 -26 -20 -38 -12 -6 3 -8 1 -5 -4 6 -10 -6 -20 -26 -21 -4 0 -19
-7 -32 -16 -13 -9 -32 -13 -42 -10 -16 5 -16 4 1 -6 18 -12 59 2 158 51 9 4
39 6 67 4 51 -4 57 0 43 22 -5 8 -12 8 -26 -3z"/>
<path d="M4505 3250 c3 -5 8 -10 11 -10 2 0 4 5 4 10 0 6 -5 10 -11 10 -5 0
-7 -4 -4 -10z"/>
<path d="M4790 3240 c14 -12 25 -26 25 -30 0 -5 3 -11 6 -14 3 -3 6 1 6 10 0
8 -14 24 -31 35 l-31 21 25 -22z"/>
<path d="M4261 3231 c-10 -7 -7 -9 12 -8 14 1 23 5 20 10 -6 9 -15 9 -32 -2z"/>
<path d="M4418 3226 c-23 -17 -23 -26 2 -26 13 0 20 7 20 20 0 23 0 23 -22 6z"/>
<path d="M3642 3183 c-9 -13 -25 -26 -34 -29 -9 -3 -18 -15 -20 -27 -2 -14
-18 -30 -47 -44 -24 -13 -52 -35 -62 -49 -10 -15 -30 -33 -45 -39 l-28 -11 37
0 c20 0 32 3 27 6 -6 4 -2 14 10 25 11 10 20 13 20 7 0 -6 7 -9 15 -6 8 4 12
10 9 15 -3 5 -10 7 -15 4 -5 -4 -9 -2 -9 4 0 6 22 20 50 32 27 12 48 25 45 29
-8 13 36 52 52 45 13 -4 14 -3 3 10 -10 12 -10 15 4 15 10 0 14 5 11 10 -4 6
5 10 20 10 22 0 24 -3 16 -18 -12 -23 4 -52 28 -52 22 0 45 -25 36 -39 -3 -7
0 -8 9 -5 9 3 16 11 17 18 4 58 3 76 -3 76 -5 0 -8 -5 -8 -10 0 -13 -48 -32
-61 -24 -6 4 -6 11 2 20 6 7 15 12 19 9 5 -3 12 0 16 6 4 7 3 9 -4 5 -6 -3
-18 1 -27 11 -25 24 -63 23 -83 -4z m135 -64 c2 -17 -1 -18 -13 -8 -13 11 -10
20 11 29 1 0 1 -9 2 -21z"/>
<path d="M4868 3184 c18 -14 30 -30 27 -35 -4 -5 0 -7 7 -4 16 6 81 -52 73
-65 -4 -6 1 -7 11 -3 13 5 15 2 10 -14 -4 -13 0 -25 11 -34 16 -13 17 -12 4 4
-28 35 -2 27 38 -12 23 -22 41 -37 41 -33 0 17 -230 222 -248 222 -4 0 8 -12
26 -26z"/>
<path d="M4559 3190 c-7 -5 -10 -12 -6 -17 5 -4 12 -2 16 6 6 9 10 7 14 -9 3
-12 10 -19 16 -16 12 8 4 33 -13 39 -7 3 -19 1 -27 -3z"/>
<path d="M4714 3175 c19 -15 19 -15 1 -15 -18 0 -18 -1 3 -22 18 -19 24 -20
34 -9 9 9 9 12 1 7 -6 -3 -15 -1 -19 5 -4 8 -3 9 4 5 7 -4 12 -1 12 8 0 8 -9
20 -19 26 -29 15 -39 12 -17 -5z"/>
<path d="M2979 3163 c-13 -16 -12 -17 4 -4 16 13 21 21 13 21 -2 0 -10 -8 -17
-17z"/>
<path d="M4384 3159 c0 -10 6 -19 13 -19 7 0 13 4 13 9 0 5 -6 13 -13 19 -10
8 -13 6 -13 -9z"/>
<path d="M3097 3153 c3 -7 9 -10 14 -7 14 8 11 21 -5 21 -8 0 -12 -6 -9 -14z"/>
<path d="M4766 3136 c-10 -19 -15 -40 -11 -48 4 -7 -4 1 -18 17 -14 17 -29 26
-34 22 -4 -5 7 -22 25 -38 26 -24 30 -31 17 -35 -9 -4 -14 -12 -11 -19 3 -8 1
-26 -3 -42 -6 -20 -13 -27 -26 -25 -16 3 -17 2 -6 -12 19 -22 27 -20 51 14 17
23 19 34 11 44 -12 14 -5 49 8 42 4 -3 13 0 21 6 12 8 12 9 -2 4 -10 -3 -20
-1 -23 4 -4 6 -1 10 5 10 6 0 9 4 5 9 -3 5 -1 13 5 16 6 4 8 15 5 26 -4 12 -2
19 7 19 16 0 21 -37 7 -45 -16 -10 -10 -25 8 -18 12 5 15 2 10 -10 -4 -11 -1
-17 9 -17 16 0 34 38 27 57 -3 6 -11 9 -18 7 -17 -7 -29 12 -14 22 8 4 7 9 -2
15 -24 15 -34 10 -53 -25z m76 -49 c-2 -10 -5 -16 -6 -15 -1 2 -7 10 -13 18
-10 13 -8 16 6 16 13 0 17 -6 13 -19z m-90 -99 c-7 -7 -12 -8 -12 -2 0 6 3 14
7 17 3 4 9 5 12 2 2 -3 -1 -11 -7 -17z"/>
<path d="M4615 3150 c-3 -5 -2 -17 3 -26 7 -12 10 -13 19 -2 8 9 7 16 -2 25
-9 8 -16 9 -20 3z"/>
<path d="M3386 3134 c-8 -20 12 -57 26 -48 7 5 9 2 5 -9 -7 -17 15 -29 38 -21
19 8 19 24 0 24 -8 0 -23 9 -32 19 -9 11 -20 18 -25 15 -4 -3 -8 0 -8 5 0 6 5
11 10 11 6 0 10 5 10 10 0 16 -17 12 -24 -6z"/>
<path d="M3365 3071 c-3 -5 0 -13 6 -17 7 -4 9 -3 5 4 -3 5 0 13 6 15 9 4 10
6 1 6 -6 1 -14 -3 -18 -8z"/>
<path d="M3784 3058 c-5 -7 -2 -9 9 -5 15 6 27 -11 27 -38 0 -7 -25 -33 -56
-59 -31 -25 -52 -46 -48 -47 5 -1 21 0 37 1 15 1 27 -4 27 -10 0 -6 5 -8 10
-5 15 9 2 25 -21 25 -11 0 -18 4 -14 10 3 5 13 6 22 3 12 -5 14 -3 8 8 -7 11
-6 12 7 2 8 -7 18 -10 21 -6 4 3 7 1 7 -4 0 -6 -6 -14 -12 -16 -10 -4 -10 -6
-1 -6 7 -1 10 -8 7 -16 -4 -8 -1 -15 5 -15 12 0 13 1 17 46 2 26 -1 31 -16 27
-25 -7 -34 14 -12 26 21 11 36 61 20 61 -6 0 -8 7 -4 15 7 18 -29 21 -40 3z"/>
<path d="M3757 2995 c-18 -9 -45 -13 -77 -9 -27 2 -51 0 -54 -4 -3 -5 21 -10
54 -11 44 -1 67 4 92 19 38 23 27 27 -15 5z"/>
<path d="M5051 2974 c0 -11 3 -14 6 -6 3 7 2 16 -1 19 -3 4 -6 -2 -5 -13z"/>
<path d="M3586 2965 c-24 -18 -40 -20 -30 -3 5 7 3 8 -5 4 -7 -5 -10 -11 -7
-14 3 -3 1 -11 -4 -17 -6 -7 8 -4 30 7 22 11 40 24 40 29 0 12 -1 11 -24 -6z"/>
<path d="M5100 2973 c0 -5 12 -20 28 -34 l27 -24 -25 30 c-14 17 -26 32 -27
34 -2 2 -3 0 -3 -6z"/>
<path d="M3665 2950 c3 -5 11 -10 16 -10 6 0 7 5 4 10 -3 6 -11 10 -16 10 -6
0 -7 -4 -4 -10z"/>
<path d="M5080 2950 c0 -5 5 -10 11 -10 5 0 7 5 4 10 -3 6 -8 10 -11 10 -2 0
-4 -4 -4 -10z"/>
<path d="M3573 2929 c-24 -12 -43 -25 -43 -30 0 -14 12 -11 25 8 7 9 17 13 23
9 18 -11 14 -23 -9 -29 -25 -7 -16 -27 12 -27 12 0 19 7 19 18 0 11 9 27 20
37 43 39 17 46 -47 14z m42 -9 c-3 -5 -10 -10 -16 -10 -5 0 -9 5 -9 10 0 6 7
10 16 10 8 0 12 -4 9 -10z m-28 -46 c-3 -3 -12 -4 -19 -1 -8 3 -5 6 6 6 11 1
17 -2 13 -5z"/>
<path d="M3666 2911 c-4 -6 -2 -11 5 -11 7 0 5 -8 -6 -20 -10 -11 -26 -20 -34
-19 -22 3 -91 -28 -91 -40 0 -16 16 -13 30 4 7 8 19 15 28 15 28 0 81 23 87
38 7 19 -10 48 -19 33z"/>
<path d="M4883 2885 c0 -8 4 -12 9 -9 5 3 6 10 3 15 -9 13 -12 11 -12 -6z"/>
<path d="M4924 2888 c-4 -7 -4 -10 0 -7 4 4 20 -5 35 -20 45 -41 59 -51 73
-51 8 0 22 -14 32 -31 10 -17 20 -28 23 -25 3 3 1 12 -6 20 -6 8 -10 19 -9 26
2 7 -4 14 -14 15 -9 2 -24 8 -35 15 -17 11 -17 11 0 6 11 -4 16 -2 12 5 -4 5
-15 7 -26 4 -21 -7 -27 10 -6 18 6 2 -1 8 -18 12 -16 4 -35 12 -42 17 -7 6
-14 4 -19 -4z"/>
<path d="M5155 2890 c-6 -10 1 -14 18 -11 4 1 7 -4 5 -11 -2 -7 2 -15 7 -17 6
-2 16 -11 23 -20 7 -9 5 -1 -5 17 -23 42 -39 57 -48 42z"/>
<path d="M3610 2885 c0 -7 30 -13 34 -7 3 4 -4 9 -15 9 -10 1 -19 0 -19 -2z"/>
<path d="M3530 2873 c0 -7 -6 -13 -14 -13 -7 0 -19 -7 -27 -16 -7 -8 -21 -13
-32 -10 -10 2 -17 2 -14 -1 3 -3 -3 -14 -14 -26 -20 -22 -25 -47 -10 -47 6 0
13 5 17 12 4 7 3 8 -4 4 -7 -4 -12 -3 -12 3 0 12 57 48 93 56 33 9 39 16 26
35 -6 10 -9 11 -9 3z"/>
<path d="M3370 2800 c-9 -6 -10 -10 -3 -10 6 0 15 5 18 10 8 12 4 12 -15 0z"/>
<path d="M5228 2800 c14 -16 16 -34 3 -25 -15 9 -25 -15 -12 -28 9 -9 10 -7 5
8 -7 18 -6 18 9 6 9 -7 17 -10 17 -5 0 4 7 -1 16 -12 11 -13 10 -9 -3 14 -10
19 -25 39 -33 45 -12 9 -13 9 -2 -3z"/>
<path d="M3358 2762 c-9 -4 -27 -20 -40 -37 l-23 -30 33 28 c19 15 39 24 44
21 6 -4 8 -2 4 4 -3 6 2 13 11 15 12 3 13 5 3 5 -8 0 -23 -2 -32 -6z"/>
<path d="M3268 2710 c-28 -22 -43 -59 -23 -56 17 2 45 26 45 38 0 5 -4 6 -10
3 -17 -11 -11 7 8 21 9 7 14 14 11 14 -4 0 -18 -9 -31 -20z m-6 -42 c-7 -7
-12 -8 -12 -2 0 6 3 14 7 17 3 4 9 5 12 2 2 -3 -1 -11 -7 -17z"/>
<path d="M5293 2693 c8 -16 22 -45 32 -66 10 -21 20 -36 22 -33 5 5 -55 126
-62 126 -3 0 1 -12 8 -27z"/>
<path d="M3226 2624 c-3 -9 -11 -12 -18 -8 -7 4 -10 4 -6 -1 5 -5 -8 -19 -27
-32 -35 -24 -50 -29 -41 -15 3 5 -1 9 -9 9 -8 0 -15 -4 -15 -9 0 -4 5 -8 12
-8 6 0 3 -7 -8 -15 -26 -20 -40 -19 -23 2 10 12 11 15 1 9 -7 -4 -20 -2 -29 6
-16 12 -16 11 0 -11 15 -23 15 -26 -4 -58 -19 -31 -30 -79 -30 -130 1 -12 -3
-24 -7 -27 -10 -6 -15 52 -5 67 4 6 8 23 9 37 3 23 2 24 -8 5 -7 -11 -13 -48
-14 -82 -3 -102 26 -75 41 37 10 82 39 121 115 160 24 12 49 27 54 34 27 28
38 46 28 46 -5 0 -13 -7 -16 -16z"/>
<path d="M5360 2555 c0 -5 5 -17 10 -25 5 -8 10 -10 10 -5 0 6 -5 17 -10 25
-5 8 -10 11 -10 5z"/>
<path d="M3415 2510 c-10 -11 -13 -20 -8 -20 13 0 38 29 31 35 -3 3 -13 -4
-23 -15z"/>
<path d="M2599 2478 c-7 -17 -13 -51 -14 -74 0 -23 -3 -45 -6 -49 -4 -3 -3
-24 2 -47 9 -38 7 -79 -7 -140 -7 -31 17 -76 65 -122 25 -24 34 -27 44 -17 10
10 8 11 -7 5 -13 -5 -17 -4 -12 4 4 7 2 12 -4 12 -6 0 -9 4 -6 9 3 5 -2 8 -11
7 -9 0 -18 5 -21 13 -3 9 0 11 8 6 9 -5 11 -4 6 4 -4 6 -11 9 -16 6 -13 -8
-31 21 -23 40 4 13 3 16 -6 11 -9 -6 -10 0 -4 21 4 15 8 66 7 112 0 47 3 76 7
65 4 -10 8 -13 8 -6 1 7 5 10 11 7 6 -3 7 1 4 9 -3 9 -10 14 -14 11 -10 -6 -5
102 5 128 4 9 5 17 2 17 -2 0 -11 -14 -18 -32z"/>
<path d="M4745 2500 c3 -5 8 -10 11 -10 2 0 4 5 4 10 0 6 -5 10 -11 10 -5 0
-7 -4 -4 -10z"/>
<path d="M5386 2490 c3 -14 11 -32 16 -40 6 -10 7 -7 2 10 -3 14 -11 32 -16
40 -6 10 -7 7 -2 -10z"/>
<path d="M2889 2483 c-10 -11 -10 -14 -1 -9 7 4 12 2 12 -4 0 -7 12 -9 30 -6
20 3 33 -1 39 -11 6 -12 13 -13 26 -6 14 8 15 12 4 19 -8 5 -23 10 -34 10 -11
1 -30 2 -43 3 -13 0 -20 6 -17 11 10 16 -1 11 -16 -7z"/>
<path d="M2990 2496 c0 -2 8 -10 18 -17 15 -13 16 -12 3 4 -13 16 -21 21 -21
13z"/>
<path d="M3873 2470 c-13 -10 -23 -21 -23 -24 0 -11 21 -6 37 9 23 23 11 36
-14 15z"/>
<path d="M2856 2473 c-4 -5 -12 -9 -17 -9 -5 -1 -13 -2 -18 -3 -5 0 -23 -13
-40 -27 -17 -14 -34 -23 -39 -20 -4 2 -9 -6 -10 -20 -1 -13 -9 -41 -18 -62
-33 -78 -45 -133 -38 -178 3 -24 11 -47 16 -50 5 -3 1 -12 -8 -18 -13 -10 -14
-15 -4 -21 9 -5 11 -4 6 3 -4 7 -2 12 3 12 6 0 11 -6 11 -12 0 -7 5 -5 11 5 5
9 19 17 29 17 11 0 20 5 20 10 0 12 -10 13 -29 1 -45 -29 -56 111 -16 197 13
28 22 52 19 52 -15 0 31 61 59 79 32 20 37 20 71 6 30 -13 36 -13 36 -1 0 8
-7 16 -15 20 -8 3 -15 1 -15 -5 0 -6 -5 -7 -10 -4 -8 5 -7 11 1 21 12 15 8 20
-5 7z"/>
<path d="M2625 2419 c-4 -6 -5 -12 -2 -15 2 -3 7 2 10 11 7 17 1 20 -8 4z"/>
<path d="M5405 2420 c3 -5 8 -10 11 -10 2 0 4 5 4 10 0 6 -5 10 -11 10 -5 0
-7 -4 -4 -10z"/>
<path d="M5427 2353 c-2 -5 2 -21 10 -38 11 -24 13 -25 8 -5 -4 14 -7 31 -7
38 -1 14 -5 15 -11 5z"/>
<path d="M3057 2297 c-3 -8 -1 -20 4 -28 6 -10 9 -7 9 14 0 29 -5 35 -13 14z"/>
<path d="M5457 2225 c3 -22 7 -42 9 -44 8 -9 2 45 -6 64 -7 14 -8 8 -3 -20z"/>
<path d="M2941 2237 c-14 -6 -26 -18 -29 -25 -3 -10 3 -9 21 3 25 16 27 16 48
-3 11 -11 27 -18 35 -15 9 3 14 -2 14 -17 0 -11 5 -18 10 -15 6 3 10 2 10 -4
0 -5 -6 -12 -12 -14 -7 -3 9 -5 35 -5 l48 1 -27 24 c-15 13 -34 21 -41 18 -9
-3 -11 0 -7 6 8 13 -44 58 -66 58 -8 1 -26 -5 -39 -12z"/>
<path d="M2935 2200 c-3 -5 -1 -10 4 -10 6 0 11 5 11 10 0 6 -2 10 -4 10 -3 0
-8 -4 -11 -10z"/>
<path d="M2813 2178 c-36 -40 -59 -95 -25 -62 9 10 17 22 17 27 0 5 10 16 23
25 22 14 22 14 7 -14 -8 -16 -15 -34 -15 -41 0 -7 -7 -10 -17 -7 -13 4 -14 3
-6 -3 10 -7 10 -18 3 -43 -6 -19 -10 -38 -10 -42 0 -8 66 -38 78 -37 21 3 23
-4 7 -27 -9 -15 -12 -23 -5 -19 9 5 9 3 2 -11 -12 -24 -7 -71 10 -91 12 -15
11 -15 -9 -2 -12 7 -20 15 -18 18 3 2 0 11 -7 18 -9 11 -9 16 2 23 12 7 11 10
-3 16 -9 3 -17 11 -17 16 0 6 8 4 18 -3 15 -13 16 -12 4 3 -8 9 -20 14 -28 11
-17 -6 -17 -5 1 -39 8 -16 15 -39 15 -51 0 -13 6 -23 14 -23 8 0 19 -14 25
-31 6 -17 15 -28 21 -24 5 3 15 3 21 -1 8 -5 8 -9 -1 -14 -8 -5 -5 -9 8 -12
16 -4 21 1 26 23 6 32 24 38 32 12 3 -10 10 -27 14 -38 13 -28 16 -78 7 -93
-5 -6 -4 -12 2 -12 15 0 14 -16 -1 -32 -16 -17 -21 -38 -9 -38 5 0 13 9 16 20
4 11 11 18 16 15 5 -4 5 5 -1 20 -12 32 -12 38 -2 31 4 -2 8 4 8 14 0 10 -4
16 -9 13 -5 -3 -7 1 -6 8 1 8 -1 36 -5 62 -10 59 -30 73 -80 52 -26 -11 -37
-12 -42 -3 -4 7 -3 8 4 4 16 -10 15 -1 -4 36 -13 25 -14 40 -4 94 13 78 3 94
-54 90 -20 -2 -36 -2 -36 -1 0 8 50 147 59 164 10 18 9 21 -7 21 -10 0 -28
-10 -39 -22z m57 -178 c0 -5 -4 -10 -10 -10 -5 0 -10 5 -10 10 0 6 5 10 10 10
6 0 10 -4 10 -10z"/>
<path d="M2646 2177 c3 -10 9 -15 12 -12 3 3 0 11 -7 18 -10 9 -11 8 -5 -6z"/>
<path d="M5472 2140 c0 -14 2 -19 5 -12 2 6 2 18 0 25 -3 6 -5 1 -5 -13z"/>
<path d="M3133 2123 c0 -18 3 -21 12 -13 15 13 57 22 52 12 -5 -10 31 -43 37
-34 9 16 -32 50 -66 54 -32 3 -35 1 -35 -19z"/>
<path d="M3147 2103 c-4 -6 -19 -8 -33 -5 -20 4 -25 2 -19 -8 4 -7 18 -10 36
-6 21 4 29 1 32 -12 4 -15 5 -15 6 2 1 12 6 16 16 13 8 -4 17 -1 21 5 5 7 -2
9 -19 6 -15 -3 -28 0 -30 5 -2 8 -5 8 -10 0z"/>
<path d="M3012 2088 c5 -15 48 -24 48 -10 0 10 -23 22 -42 22 -5 0 -8 -6 -6
-12z"/>
<path d="M5471 2084 c0 -11 3 -14 6 -6 3 7 2 16 -1 19 -3 4 -6 -2 -5 -13z"/>
<path d="M3260 2080 c0 -5 9 -10 20 -10 11 0 20 5 20 10 0 6 -9 10 -20 10 -11
0 -20 -4 -20 -10z"/>
<path d="M3350 2071 c-12 -23 -6 -41 13 -41 8 0 7 4 -2 9 -12 8 -13 12 -1 25
7 9 10 19 7 22 -3 3 -10 -4 -17 -15z"/>
<path d="M3420 2070 c-9 -6 -10 -10 -3 -10 6 0 15 5 18 10 8 12 4 12 -15 0z"/>
<path d="M3375 2050 c3 -5 8 -10 11 -10 2 0 4 5 4 10 0 6 -5 10 -11 10 -5 0
-7 -4 -4 -10z"/>
<path d="M2702 2045 c19 -50 41 -83 68 -99 31 -17 33 -17 48 -1 16 17 16 17 0
12 -9 -3 -19 -3 -23 1 -3 4 -13 7 -22 7 -25 0 -41 33 -23 46 13 9 13 10 0 6
-8 -2 -23 6 -33 17 -10 12 -17 17 -15 11z"/>
<path d="M3425 2039 c-4 -6 -5 -12 -2 -15 2 -3 7 2 10 11 7 17 1 20 -8 4z"/>
<path d="M5484 1940 c0 -58 1 -81 3 -52 2 28 2 76 0 105 -2 28 -3 5 -3 -53z"/>
<path d="M3387 2022 c-7 -11 4 -62 14 -62 4 0 7 9 6 20 -1 11 -5 20 -10 20 -5
0 -4 7 3 15 8 9 9 15 2 15 -6 0 -13 -3 -15 -8z"/>
<path d="M3427 2003 c-4 -3 -7 -11 -7 -17 0 -6 5 -5 12 2 6 6 9 14 7 17 -3 3
-9 2 -12 -2z"/>
<path d="M3360 1970 c0 -5 5 -10 11 -10 5 0 7 5 4 10 -3 6 -8 10 -11 10 -2 0
-4 -4 -4 -10z"/>
<path d="M3429 1960 c-1 -5 -2 -14 -3 -19 0 -6 -7 -16 -15 -23 -11 -11 -12 -9
-6 10 3 12 2 22 -3 22 -6 0 -9 -11 -8 -24 2 -15 -3 -27 -12 -31 -11 -4 -12 -8
-3 -19 9 -11 17 -11 36 -2 31 14 33 29 3 21 -21 -5 -21 -5 -6 8 21 17 42 67
28 67 -6 0 -11 -4 -11 -10z"/>
<path d="M3230 1916 c0 -2 7 -9 15 -16 13 -11 14 -10 9 4 -5 14 -24 23 -24 12z"/>
<path d="M3065 1890 c3 -5 8 -10 11 -10 2 0 4 5 4 10 0 6 -5 10 -11 10 -5 0
-7 -4 -4 -10z"/>
<path d="M3116 1880 c-10 -11 -23 -17 -27 -14 -5 3 -9 0 -9 -5 0 -6 -6 -10
-12 -8 -7 1 -13 -9 -15 -23 -1 -14 0 -18 3 -10 5 17 45 38 62 32 12 -4 -2 -52
-19 -63 -5 -3 6 -6 24 -7 29 -1 36 3 39 23 3 13 1 22 -3 19 -5 -3 -9 -12 -9
-20 0 -8 -4 -14 -10 -14 -22 0 -9 40 18 54 25 13 31 13 44 0 13 -13 15 -13 15
2 0 9 -9 19 -19 22 -10 2 -15 8 -12 13 3 5 0 9 -5 9 -6 0 -11 -6 -11 -14 0
-15 -29 -30 -39 -20 -3 4 0 9 7 11 13 5 17 33 5 32 -5 0 -17 -9 -27 -19z"/>
<path d="M3275 1880 c-3 -5 -1 -10 4 -10 6 0 11 5 11 10 0 6 -2 10 -4 10 -3 0
-8 -4 -11 -10z"/>
<path d="M3350 1881 c0 -6 4 -13 10 -16 6 -3 7 1 4 9 -7 18 -14 21 -14 7z"/>
<path d="M3308 1838 c-13 -19 -19 -21 -29 -10 -18 17 -49 15 -49 -3 0 -8 5
-15 11 -15 5 0 7 6 3 13 -6 9 -5 9 8 0 8 -7 18 -9 22 -5 5 4 6 -1 4 -10 -1 -9
2 -16 7 -15 6 1 9 4 8 8 -1 3 7 11 18 17 18 11 24 9 48 -17 16 -17 31 -27 35
-24 11 12 6 23 -11 23 -17 1 -17 1 0 11 9 5 17 17 17 24 0 23 -17 18 -23 -6
-4 -14 -10 -18 -18 -13 -10 6 -10 9 -1 12 7 2 12 8 12 13 0 4 -7 6 -16 2 -9
-3 -19 -1 -23 6 -6 8 -13 5 -23 -11z"/>
<path d="M3317 1813 c-13 -12 -7 -23 11 -22 10 0 12 3 4 6 -6 2 -10 9 -6 14 6
10 0 12 -9 2z"/>
<path d="M5473 1780 c0 -25 2 -35 4 -22 2 12 2 32 0 45 -2 12 -4 2 -4 -23z"/>
<path d="M3030 1783 c0 -10 4 -14 8 -8 4 6 11 13 16 18 5 4 2 7 -7 7 -10 0
-17 -8 -17 -17z"/>
<path d="M3230 1796 c0 -2 7 -7 16 -10 8 -3 12 -2 9 4 -6 10 -25 14 -25 6z"/>
<path d="M5462 1705 c0 -16 2 -22 5 -12 2 9 2 23 0 30 -3 6 -5 -1 -5 -18z"/>
<path d="M2985 1649 c-4 -12 -3 -25 2 -29 4 -5 8 4 9 21 1 34 -2 37 -11 8z"/>
<path d="M5452 1650 c0 -14 2 -19 5 -12 2 6 2 18 0 25 -3 6 -5 1 -5 -13z"/>
<path d="M2433 1536 c2 -25 -2 -30 -30 -38 -18 -5 -33 -12 -33 -16 0 -9 133
-142 141 -142 6 0 -50 159 -71 205 -8 17 -9 16 -7 -9z"/>
<path d="M2984 1542 c-15 -10 -18 -98 -3 -107 9 -6 10 -1 5 19 -4 15 -3 32 1
39 6 10 14 57 10 57 -1 0 -7 -4 -13 -8z"/>
<path d="M5386 1527 c3 -10 9 -15 12 -12 3 3 0 11 -7 18 -10 9 -11 8 -5 -6z"/>
<path d="M1328 1523 c7 -3 16 -2 19 1 4 3 -2 6 -13 5 -11 0 -14 -3 -6 -6z"/>
<path d="M2901 1474 c0 -11 3 -14 6 -6 3 7 2 16 -1 19 -3 4 -6 -2 -5 -13z"/>
<path d="M2920 1460 c0 -24 15 -27 24 -4 9 22 8 24 -9 24 -8 0 -15 -9 -15 -20z"/>
<path d="M3025 1461 c-3 -5 -2 -12 3 -15 5 -3 9 1 9 9 0 17 -3 19 -12 6z"/>
<path d="M2990 1416 c-11 -21 -10 -30 4 -61 17 -34 15 -55 -5 -55 -6 0 -7 5
-4 10 3 6 1 10 -5 10 -7 0 -10 7 -6 15 3 8 1 25 -5 37 -9 21 -9 21 -4 -4 3
-15 -1 -33 -7 -40 -20 -21 -38 -56 -38 -73 0 -8 -4 -15 -10 -15 -18 0 -10 43
12 67 19 21 21 27 9 45 -11 17 -11 22 0 29 8 4 10 11 6 15 -14 14 -37 -18 -31
-43 5 -18 1 -28 -15 -39 -11 -8 -21 -24 -21 -35 0 -19 -34 -61 -43 -53 -10 11
-54 -9 -67 -29 -12 -20 -12 -21 4 -7 27 21 124 30 131 12 3 -8 3 -17 0 -20 -3
-3 -5 0 -5 6 0 18 -95 15 -110 -3 -11 -13 -10 -14 5 -9 12 5 16 4 12 -3 -5 -7
0 -9 13 -6 27 7 72 -5 65 -17 -4 -7 -14 -6 -26 1 -12 6 -23 9 -25 6 -13 -13
169 -72 188 -61 7 5 8 3 3 -6 -6 -10 0 -12 31 -7 29 5 35 4 24 -4 -11 -8 -5
-9 25 -5 24 3 35 2 26 -3 -9 -6 4 -10 38 -12 28 -2 51 -1 51 4 0 4 7 7 15 7 8
0 15 -5 15 -11 0 -13 189 -4 202 9 4 4 -33 4 -82 0 -87 -8 -92 -7 -130 18 -35
24 -70 63 -70 80 0 3 8 0 18 -7 15 -13 16 -12 3 4 -8 9 -16 15 -19 12 -6 -6
-62 45 -62 57 0 8 -11 22 -62 81 -29 34 -36 52 -15 42 6 -4 4 0 -6 8 -12 10
-15 17 -7 22 6 4 8 16 4 27 -4 15 -3 18 6 13 9 -5 11 -4 6 3 -11 18 -21 14
-36 -12z m96 -183 c32 -43 61 -82 66 -88 4 -5 19 -25 34 -42 14 -18 22 -33 17
-33 -14 1 -37 24 -52 52 -8 15 -19 24 -25 21 -6 -3 -8 -2 -3 2 8 10 -32 57
-44 50 -4 -3 -5 3 -2 14 3 10 0 22 -6 25 -7 4 -8 1 -5 -8 9 -24 -4 -19 -17 5
-8 15 -8 19 0 15 23 -15 10 13 -14 28 -14 9 -25 21 -25 26 0 25 24 4 76 -67z
m-106 16 c0 -6 -4 -7 -10 -4 -5 3 -10 11 -10 16 0 6 5 7 10 4 6 -3 10 -11 10
-16z m-137 -66 c-7 -2 -21 -2 -30 0 -10 3 -4 5 12 5 17 0 24 -2 18 -5z m117
-63 c20 -6 21 -8 5 -8 -11 0 -29 3 -40 8 -25 11 1 11 35 0z"/>
<path d="M2670 1276 c0 -2 7 -7 16 -10 8 -3 12 -2 9 4 -6 10 -25 14 -25 6z"/>
<path d="M2660 1236 c0 -2 7 -7 16 -10 8 -3 12 -2 9 4 -6 10 -25 14 -25 6z"/>
<path d="M2703 1225 c0 -8 4 -12 9 -9 5 3 6 10 3 15 -9 13 -12 11 -12 -6z"/>
<path d="M3595 1105 c-39 -14 -40 -14 -5 -8 41 7 82 22 60 22 -8 0 -33 -7 -55
-14z"/>
<path d="M3480 1080 c-20 -6 -21 -8 -5 -8 11 0 34 4 50 8 27 7 27 8 5 8 -14 0
-36 -4 -50 -8z"/>
<path d="M5045 971 c-3 -5 -2 -12 3 -15 5 -3 9 1 9 9 0 17 -3 19 -12 6z"/>
</g>
</svg>
